<svg xmlns="http://www.w3.org/2000/svg" width="256" height="256" viewBox="0 0 256 256"><g fill="none" stroke="#fff4c6" stroke-opacity="0.5"><circle cx="128" cy="128" r="53.5" stroke-width="6"/><circle cx="128" cy="128" r="32.5" stroke-width="6"/></g><path d="M128 80 l4 5 -4 5 -4 -5z" transform="rotate(0 128 128)" fill="none" stroke="#fff4c6" stroke-width="1"/><path d="M128 80 l4 5 -4 5 -4 -5z" transform="rotate(90 128 128)" fill="none" stroke="#fff4c6" stroke-width="1"/><path d="M128 80 l4 5 -4 5 -4 -5z" transform="rotate(180 128 128)" fill="none" stroke="#fff4c6" stroke-width="1"/><path d="M128 80 l4 5 -4 5 -4 -5z" transform="rotate(270 128 128)" fill="none" stroke="#fff4c6" stroke-width="1"/><text x="128" y="91.65" transform="rotate(0.000 128 128)" text-anchor="middle" fill="#fff4c6" font-family="SimSun, Noto Serif CJK SC, serif" font-size="19" font-weight="700">焚</text><text x="128" y="91.65" transform="rotate(36.000 128 128)" text-anchor="middle" fill="#fff4c6" font-family="SimSun, Noto Serif CJK SC, serif" font-size="19" font-weight="700">灼</text><text x="128" y="91.65" transform="rotate(72.000 128 128)" text-anchor="middle" fill="#fff4c6" font-family="SimSun, Noto Serif CJK SC, serif" font-size="19" font-weight="700">煌</text><text x="128" y="91.65" transform="rotate(108.000 128 128)" text-anchor="middle" fill="#fff4c6" font-family="SimSun, Noto Serif CJK SC, serif" font-size="19" font-weight="700">焰</text><text x="128" y="91.65" transform="rotate(144.000 128 128)" text-anchor="middle" fill="#fff4c6" font-family="SimSun, Noto Serif CJK SC, serif" font-size="19" font-weight="700">熾</text><text x="128" y="91.65" transform="rotate(180.000 128 128)" text-anchor="middle" fill="#fff4c6" font-family="SimSun, Noto Serif CJK SC, serif" font-size="19" font-weight="700">煉</text><text x="128" y="91.65" transform="rotate(216.000 128 128)" text-anchor="middle" fill="#fff4c6" font-family="SimSun, Noto Serif CJK SC, serif" font-size="19" font-weight="700">焚</text><text x="128" y="91.65" transform="rotate(252.000 128 128)" text-anchor="middle" fill="#fff4c6" font-family="SimSun, Noto Serif CJK SC, serif" font-size="19" font-weight="700">焰</text><text x="128" y="91.65" transform="rotate(288.000 128 128)" text-anchor="middle" fill="#fff4c6" font-family="SimSun, Noto Serif CJK SC, serif" font-size="19" font-weight="700">熾</text><text x="128" y="91.65" transform="rotate(324.000 128 128)" text-anchor="middle" fill="#fff4c6" font-family="SimSun, Noto Serif CJK SC, serif" font-size="19" font-weight="700">焰</text></svg>
